<svg width="619" height="526" viewBox="0 0 619 526" fill="none" xmlns="http://www.w3.org/2000/svg">
<path d="M490.436 304.376V258.011C490.436 257.716 490.566 257.436 490.791 257.246L547.659 209.264C548.309 208.715 549.304 209.177 549.304 210.028V304.376C549.304 304.929 548.856 305.376 548.304 305.376H491.436C490.884 305.376 490.436 304.929 490.436 304.376Z" fill="#FFE1DC"/>
<path d="M490.791 254.18L547.659 206.198C548.309 205.649 549.304 206.111 549.304 206.962V247.735C549.304 269.139 499.633 278.126 491.544 279.447C490.942 279.546 490.436 279.075 490.436 278.465V254.944C490.436 254.65 490.566 254.37 490.791 254.18Z" fill="#FAB6B2"/>
<path d="M490.436 304.376V258.011C490.436 257.716 490.566 257.436 490.791 257.246L547.659 209.264C548.309 208.715 549.304 209.177 549.304 210.028V304.376C549.304 304.929 548.856 305.376 548.304 305.376H491.436C490.884 305.376 490.436 304.929 490.436 304.376Z" stroke="#3A404F" stroke-width="12" stroke-linecap="round"/>
<path d="M430.545 483.821H607.969C610.772 483.821 613.028 481.516 612.968 478.713L610.012 341.556C608.944 321.812 563.764 293.246 552.053 286.162C550.376 285.148 548.28 285.259 546.685 286.398L522.163 303.914C520.424 305.155 518.089 305.155 516.35 303.914L491.828 286.398C490.233 285.259 488.137 285.148 486.46 286.162C474.749 293.246 429.569 321.812 428.501 341.556L425.546 478.713C425.485 481.516 427.741 483.821 430.545 483.821Z" fill="#E9F1FF"/>
<path d="M610.012 341.556L612.965 478.607C613.026 481.451 610.707 483.772 607.864 483.714L587.747 483.304C585.099 483.25 582.952 481.14 582.852 478.493L578.125 353.207C577.404 339.861 549.242 319.07 530.682 306.325C527.819 304.359 527.753 300.152 530.565 298.113L546.678 286.431C548.275 285.273 550.385 285.153 552.073 286.174C563.815 293.278 608.945 321.823 610.012 341.556Z" fill="#B4C9EA"/>
<path d="M426.136 451.32L428.501 341.556C429.569 321.812 474.749 293.246 486.46 286.162C488.137 285.148 490.233 285.259 491.828 286.398L516.35 303.914C518.089 305.155 520.424 305.155 522.163 303.914L546.685 286.398C548.28 285.259 550.376 285.148 552.053 286.162C563.764 293.246 608.944 321.812 610.012 341.556L612.377 451.32" stroke="#3A404F" stroke-width="12" stroke-linecap="round" stroke-linejoin="round"/>
<path d="M495.804 428.44L515.765 447.914C517.707 449.809 520.806 449.809 522.748 447.914L542.709 428.44C543.778 427.396 544.325 425.93 544.2 424.441L535.243 318.159C535.214 317.814 535.149 317.466 535.042 317.138C531.508 306.385 521.213 305.977 519.499 305.985C519.333 305.985 519.18 305.985 519.013 305.985C517.3 305.977 507.005 306.385 503.471 317.138C503.363 317.466 503.299 317.814 503.27 318.159L494.313 424.441C494.188 425.93 494.735 427.396 495.804 428.44Z" fill="#71B1DD" stroke="#3A404F" stroke-width="12" stroke-linecap="round" stroke-linejoin="round"/>
<path d="M28.6888 339.716L6 520H279.492L271.247 483.821L238.407 339.716H28.6888Z" fill="#D88E8E"/>
<path d="M91.2362 98.7245V290.659H169.727V259.993C169.727 255.332 172.924 251.276 177.381 249.91C194.929 244.531 236.567 228.556 236.567 198.065V108.72C236.567 103.197 232.09 98.7245 226.567 98.7245H91.2362Z" fill="#FFE1DC" stroke="#3A404F" stroke-width="12" stroke-linecap="round"/>
<path d="M208.359 155.14C204.973 155.14 202.227 157.885 202.227 161.272C202.227 164.659 204.973 167.404 208.359 167.404C211.746 167.404 214.491 164.659 214.491 161.272C214.491 157.885 211.746 155.14 208.359 155.14Z" fill="#3A404F"/>
<path d="M91.2362 253.867V290.659H118.217V277.911C118.217 274.744 119.753 271.765 122.239 269.803C152.73 245.742 140.293 236.697 140.293 236.697L91.2362 253.867Z" fill="#FAB6B2"/>
<path d="M165.071 161.459C124.993 147.014 124.706 208.475 148.008 211.129C150.304 211.39 152.454 211.518 152.454 213.829C152.454 214.529 152.264 216.765 151.88 217.35C143.21 230.543 118.136 259.085 90.623 253.867C55.0568 247.121 28.0756 209.102 28.0756 193.772V115.839C28.0756 115.447 28.0914 115.137 28.1489 114.75C29.1635 107.913 41.7579 37.4355 129.808 37.4035C129.847 37.4035 129.883 37.4037 129.922 37.4042C130.9 37.4152 144.934 37.57 152.454 37.4035C179.241 36.8105 176.68 5.82023 183.139 6.00079C183.607 6.01387 183.993 6.15877 184.452 6.25033C194.336 8.22189 317.735 34.8699 238.355 121.863C236.512 123.882 233.794 125.093 231.06 125.093H203.629C200.099 125.093 196.83 126.953 195.029 129.989L178.891 157.181C176.123 161.845 170.173 163.298 165.071 161.459Z" fill="#FFBE5A"/>
<path d="M28.0756 193.772V115.281C69.1605 270.423 132.396 183.348 132.396 183.348C131.485 198.009 138.925 213.479 152.454 210.942V216.461C144.367 229.206 118.772 259.205 90.623 253.867C55.0568 247.121 28.0756 209.102 28.0756 193.772Z" fill="#FC9753"/>
<path d="M165.071 161.459C124.993 147.014 124.706 208.475 148.008 211.129C150.304 211.39 152.454 211.518 152.454 213.829C152.454 214.529 152.264 216.765 151.88 217.35C143.21 230.543 118.136 259.085 90.623 253.867C55.0568 247.121 26.236 219.527 26.236 183.348V114.771C26.236 114.294 26.2636 113.855 26.3477 113.386C27.6954 105.862 42.3563 37.4348 129.809 37.4035C129.847 37.4035 129.883 37.4037 129.922 37.4042C130.9 37.4152 144.934 37.57 152.454 37.4035C179.241 36.8105 176.681 5.82023 183.139 6.00079C183.607 6.01387 183.993 6.15877 184.452 6.25033C194.336 8.22189 317.735 34.8699 238.355 121.863C236.512 123.882 233.794 125.093 231.06 125.093H203.629C200.099 125.093 196.83 126.953 195.029 129.989L178.891 157.181C176.123 161.845 170.173 163.298 165.071 161.459Z" stroke="#3A404F" stroke-width="12" stroke-linecap="round"/>
<path d="M217.395 277.378C252.985 262.451 267.855 299.52 272.814 317.368C274.186 322.306 270.872 327.08 265.837 328.033C264.334 328.318 262.922 328.963 261.724 329.915L242.626 345.078C239.663 347.43 235.627 347.909 232.197 346.316L222.931 342.014C221.417 341.311 220.066 340.2 219.092 338.844C185.377 291.919 212.667 279.23 216.51 277.729C216.803 277.614 217.105 277.5 217.395 277.378Z" fill="#FFE1DC"/>
<path d="M238.407 339.716H181.378C181.378 339.716 208.973 345.848 216.464 375.282L249.444 520H279.492L271.247 483.821L238.407 339.716Z" fill="#B26A6A"/>
<path d="M607.465 520H284.094C281.76 520 279.737 518.386 279.218 516.111L273.252 489.932C272.539 486.802 274.918 483.821 278.127 483.821H607.465C610.226 483.821 612.465 486.059 612.465 488.821V515C612.465 517.761 610.226 520 607.465 520Z" fill="#A7A7A7"/>
<path d="M309.539 520H279.492L270.907 483.82H300.954L309.539 520Z" fill="#818181"/>
<path d="M337.133 453.773C333.962 466.007 303.004 476.901 287.053 481.756C281.846 483.341 276.487 480.24 275.031 474.996L240.229 349.712C238.848 344.741 241.476 339.535 246.295 337.694L274.672 326.851C275.227 326.639 275.799 326.477 276.383 326.366L279.324 325.81C283.765 324.97 288.196 327.173 290.132 331.257C301.857 355.98 340.784 439.693 337.133 453.773Z" fill="#97AFD2"/>
<path d="M6.61322 520L28.2006 348.468C28.83 343.467 33.0958 339.716 38.1359 339.716C111.989 339.716 156.962 339.716 231.037 339.716C235.704 339.716 239.755 342.944 240.792 347.494L271.86 483.821M280.105 520H607.465C610.226 520 612.465 517.761 612.465 515V488.821C612.465 486.059 610.226 483.821 607.465 483.821H271.86M280.105 520L271.86 483.821M280.105 520H189.963M151.331 520H141.519" stroke="#3A404F" stroke-width="12" stroke-linecap="round" stroke-linejoin="round"/>
<path d="M277.652 484.434C277.652 484.434 332.841 470.33 337.133 453.773C340.784 439.693 301.857 355.98 290.132 331.257C288.196 327.173 283.765 324.97 279.324 325.81L275.506 326.532M264.161 328.678L275.506 326.532M275.506 326.532C275.506 326.532 271.52 260.612 217.557 277.782" stroke="#3A404F" stroke-width="12" stroke-linecap="round"/>
<path d="M90.0098 290.659C56.2832 290.659 45.2454 339.716 45.2454 339.716H219.397C219.397 339.716 208.359 290.659 174.633 290.659H90.0098Z" fill="#97AFD2" stroke="#3A404F" stroke-width="12" stroke-linecap="round"/>
<path d="M530.295 138.583C539.365 138.583 545.663 146.899 548.817 152.349C549.368 153.302 551.144 160.263 551.144 161.364V169.456C551.144 170.008 551.591 170.47 552.144 170.47H571.403C571.767 170.47 572.105 170.268 572.279 169.948C581.651 152.694 581.802 139.03 581.804 138.594C581.804 138.58 581.805 138.575 581.805 138.561C587.233 8.60043 473.466 57.438 470.269 58.8357C470.169 58.8794 470.146 58.871 470.037 58.8799C469.337 58.9373 466.535 59.1394 464.681 58.8659C455.565 57.521 450.122 41.8337 448.969 38.1668C448.827 37.7179 448.388 37.4187 447.923 37.4907C434.263 39.6082 438.342 73.2509 439.347 80.2753C439.44 80.9297 438.896 81.4844 438.239 81.4092C434.912 81.028 425.807 79.9295 418.077 78.4886C412.136 77.3812 407.769 72.1828 405.2 78.4886C398.479 94.9835 424.018 124.868 445.431 138.431C445.59 138.532 445.748 138.583 445.937 138.583H530.295Z" fill="#7A7C89"/>
<path d="M439.54 210.942V161.272V139.583C439.54 139.031 439.966 138.583 440.518 138.583H530.295C539.365 138.583 545.663 146.899 548.817 152.349C549.368 153.302 551.144 160.257 551.144 161.358V210.942C551.144 273.489 439.54 273.489 439.54 210.942Z" fill="#FFE1DC"/>
<path d="M586.71 182.121C587.265 205.413 557.727 205.634 552.073 205.464C551.547 205.448 551.144 205.015 551.144 204.489V159.751C551.144 159.226 551.543 158.794 552.068 158.778C557.603 158.609 586.156 158.865 586.71 182.121Z" fill="#FAB6B2"/>
<path d="M439.539 161.272V210.942C439.539 273.489 551.144 273.489 551.144 210.942C551.144 209.037 551.144 207.198 551.144 205.423M581.804 138.583C587.245 8.59496 473.466 57.4379 470.268 58.8357C470.169 58.8794 470.146 58.871 470.037 58.8799C469.337 58.9373 466.535 59.1394 464.681 58.8659C455.565 57.521 450.122 41.8337 448.969 38.1668C448.827 37.7179 448.388 37.4187 447.923 37.4907C434.263 39.6082 438.342 73.2509 439.346 80.2753C439.44 80.9297 438.896 81.4844 438.239 81.4092C434.912 81.028 425.807 79.9295 418.077 78.4886C412.136 77.3812 407.769 72.1828 405.2 78.4886C398.479 94.9835 424.018 124.868 445.431 138.431C445.59 138.532 445.748 138.583 445.937 138.583C450.667 138.583 517.284 138.583 530.294 138.583C539.365 138.583 545.663 146.899 548.817 152.349C549.368 153.302 551.144 160.257 551.144 161.358C551.144 167.093 551.144 179.423 551.144 205.423M551.144 205.423C551.144 205.423 587.323 207.876 586.71 182.121C586.156 158.865 557.603 158.609 552.067 158.778C551.542 158.794 551.144 159.226 551.144 159.751V205.423Z" stroke="#3A404F" stroke-width="12" stroke-linecap="round"/>
<path d="M469.587 182.734C466.2 182.734 463.455 185.48 463.455 188.866C463.455 192.253 466.2 194.999 469.587 194.999C472.973 194.999 475.719 192.253 475.719 188.866C475.719 185.48 472.973 182.734 469.587 182.734Z" fill="#3A404F"/>
<path d="M508.832 182.734C505.446 182.734 502.7 185.48 502.7 188.866C502.7 192.253 505.446 194.999 508.832 194.999C512.219 194.999 514.964 192.253 514.964 188.866C514.964 185.48 512.219 182.734 508.832 182.734Z" fill="#3A404F"/>
</svg>
