<svg width="119" height="78" viewBox="0 0 119 78" fill="none" xmlns="http://www.w3.org/2000/svg">
<path d="M11.654 20.3723H33.962L45.116 39L33.962 57.6277H11.654L0.5 39L11.654 20.3723Z" fill="#07B3D9"/>
<path d="M11.654 20.3723H33.962L45.116 39L33.962 57.6277H11.654L0.5 39L11.654 20.3723Z" fill="#07B3D9"/>
<path d="M85.538 20.3723H107.846L119 39L107.846 57.6277H85.538L74.384 39L85.538 20.3723Z" fill="#07B3D9"/>
<path d="M85.538 20.3723H107.846L119 39L107.846 57.6277H85.538L74.384 39L85.538 20.3723Z" fill="#07B3D9"/>
<path d="M48.596 0.239502H70.904L82.058 18.8673L70.904 37.495H48.596L37.442 18.8673L48.596 0.239502Z" fill="#07B3D9"/>
<path d="M48.596 0.239502H70.904L82.058 18.8673L70.904 37.495H48.596L37.442 18.8673L48.596 0.239502Z" fill="#07B3D9"/>
<path d="M48.596 40.5051H70.904L82.058 59.1328L70.904 77.7605H48.596L37.442 59.1328L48.596 40.5051Z" fill="#07B3D9"/>
<path d="M48.596 40.5051H70.904L82.058 59.1328L70.904 77.7605H48.596L37.442 59.1328L48.596 40.5051Z" fill="#07B3D9"/>
</svg>
